<svg xmlns="http://www.w3.org/2000/svg" style="display:none">
<symbol id="icon-main"  viewBox="0 0 74 61">
<path d="M72.000,60.841 C72.000,60.841 2.000,60.841 2.000,60.841 C0.895,60.841 -0.000,59.944 -0.000,58.837 C-0.000,57.731 0.895,56.834 2.000,56.834 C2.000,56.834 4.568,56.834 4.568,56.834 C5.565,40.477 18.670,27.349 35.000,26.350 C35.000,26.350 35.000,25.781 35.000,25.781 C35.000,24.675 35.896,23.778 37.000,23.778 C38.104,23.778 39.000,24.675 39.000,25.781 C39.000,25.781 39.000,26.350 39.000,26.350 C55.330,27.349 68.435,40.477 69.432,56.834 C69.432,56.834 72.000,56.834 72.000,56.834 C73.105,56.834 74.000,57.731 74.000,58.837 C74.000,59.944 73.105,60.841 72.000,60.841 ZM37.000,30.289 C21.958,30.289 9.609,42.025 8.578,56.834 C8.578,56.834 61.227,56.834 61.227,56.834 C60.471,51.249 58.144,46.022 54.485,41.711 C54.128,41.289 54.179,40.657 54.600,40.299 C55.019,39.941 55.652,39.991 56.009,40.413 C59.947,45.053 62.444,50.687 63.231,56.705 C63.237,56.749 63.223,56.790 63.223,56.834 C63.223,56.834 65.422,56.834 65.422,56.834 C64.391,42.025 52.042,30.289 37.000,30.289 ZM48.612,13.914 C48.612,15.253 47.545,16.138 46.604,16.918 C45.893,17.507 45.157,18.117 45.157,18.693 C45.157,19.982 46.164,20.469 46.278,20.520 C46.778,20.743 47.013,21.329 46.797,21.833 C46.635,22.213 46.269,22.442 45.882,22.442 C45.755,22.442 45.627,22.418 45.502,22.366 C45.406,22.326 43.157,21.363 43.157,18.693 C43.157,17.174 44.361,16.177 45.328,15.375 C45.930,14.876 46.612,14.311 46.612,13.914 C46.612,13.543 45.969,13.012 45.401,12.543 C44.401,11.717 43.157,10.690 43.157,9.016 C43.157,6.213 45.515,4.754 45.615,4.693 C46.087,4.406 46.702,4.559 46.987,5.033 C47.273,5.505 47.123,6.118 46.653,6.405 C46.579,6.452 45.157,7.367 45.157,9.016 C45.157,9.694 45.758,10.241 46.674,10.997 C47.582,11.748 48.612,12.598 48.612,13.914 ZM40.644,9.352 C40.644,10.691 39.577,11.576 38.636,12.357 C37.925,12.945 37.189,13.555 37.189,14.131 C37.189,15.477 38.289,15.949 38.300,15.954 C38.810,16.165 39.052,16.751 38.841,17.262 C38.682,17.648 38.309,17.881 37.917,17.881 C37.789,17.881 37.659,17.856 37.534,17.804 C37.438,17.765 35.190,16.800 35.190,14.131 C35.190,12.612 36.394,11.615 37.360,10.813 C37.963,10.314 38.645,9.749 38.645,9.352 C38.645,8.981 38.001,8.450 37.434,7.981 C36.434,7.156 35.190,6.128 35.190,4.454 C35.190,1.651 37.546,0.193 37.646,0.132 C38.120,-0.156 38.734,-0.002 39.019,0.471 C39.304,0.943 39.154,1.557 38.685,1.844 C38.604,1.894 37.189,2.809 37.189,4.454 C37.189,5.133 37.790,5.679 38.706,6.435 C39.614,7.186 40.644,8.036 40.644,9.352 ZM32.676,13.914 C32.676,15.253 31.608,16.138 30.667,16.918 C29.956,17.507 29.221,18.117 29.221,18.693 C29.221,19.982 30.228,20.469 30.342,20.520 C30.842,20.743 31.076,21.329 30.860,21.833 C30.698,22.213 30.332,22.442 29.945,22.442 C29.818,22.442 29.690,22.418 29.565,22.366 C29.470,22.326 27.221,21.363 27.221,18.693 C27.221,17.174 28.425,16.177 29.392,15.375 C29.993,14.876 30.676,14.311 30.676,13.914 C30.676,13.543 30.032,13.012 29.465,12.543 C28.465,11.717 27.221,10.690 27.221,9.016 C27.221,6.213 29.578,4.754 29.679,4.693 C30.149,4.406 30.766,4.559 31.051,5.033 C31.336,5.505 31.186,6.118 30.717,6.405 C30.643,6.452 29.221,7.367 29.221,9.016 C29.221,9.694 29.821,10.241 30.737,10.997 C31.646,11.748 32.676,12.598 32.676,13.914 Z"/>
</symbol>
<symbol id="icon-buffet"  viewBox="0 0 70 65">
<path d="M51.152,28.094 C53.871,28.094 56.639,27.045 58.712,24.966 C58.712,24.966 68.940,14.710 68.940,14.710 C69.720,13.929 69.720,12.662 68.940,11.881 C68.161,11.099 66.898,11.099 66.119,11.881 C66.119,11.881 55.891,22.137 55.891,22.137 C53.889,24.145 50.879,24.638 48.584,23.551 C48.584,23.551 64.283,8.063 64.283,8.063 C65.069,7.287 65.079,6.021 64.306,5.233 C63.534,4.446 62.269,4.435 61.485,5.210 C61.485,5.210 45.866,20.620 45.866,20.620 C44.988,18.371 45.525,15.556 47.426,13.649 C47.426,13.649 57.654,3.392 57.654,3.392 C58.434,2.611 58.434,1.344 57.654,0.563 C56.875,-0.218 55.613,-0.218 54.833,0.563 C54.833,0.563 44.605,10.820 44.605,10.820 C41.152,14.282 40.557,19.675 42.889,23.557 C42.889,23.557 34.037,32.264 34.037,32.264 C34.037,32.264 4.222,2.361 4.222,2.361 C3.443,1.580 2.181,1.580 1.401,2.361 C0.968,2.795 0.785,3.379 0.833,3.946 C-0.090,6.634 -2.285,13.514 9.006,24.837 C16.300,32.151 20.881,32.944 24.601,32.944 C26.214,32.944 27.463,32.605 28.365,32.235 C28.365,32.235 31.193,35.070 31.193,35.070 C31.193,35.070 4.654,61.213 4.654,61.213 C3.868,61.988 3.859,63.255 4.631,64.043 C5.022,64.441 5.537,64.640 6.053,64.640 C6.559,64.640 7.065,64.449 7.452,64.066 C7.452,64.066 34.014,37.900 34.014,37.900 C34.014,37.900 60.228,64.195 60.228,64.195 C60.617,64.586 61.128,64.781 61.638,64.781 C62.149,64.781 62.659,64.586 63.049,64.195 C63.828,63.414 63.828,62.147 63.049,61.366 C63.049,61.366 36.858,35.094 36.858,35.094 C36.858,35.094 45.641,26.455 45.641,26.455 C47.269,27.546 49.196,28.094 51.152,28.094 ZM11.827,22.007 C5.021,15.182 4.442,11.091 4.282,8.080 C4.282,8.080 25.054,28.915 25.054,28.915 C22.457,29.073 18.748,28.948 11.827,22.007 Z"/>
</symbol>
<symbol id="icon-bar"  viewBox="0 0 51 79">
<path d="M50.352,19.149 C50.352,19.149 27.124,51.028 27.124,51.028 C27.124,51.028 27.124,74.881 27.124,74.881 C27.124,74.881 33.162,74.881 33.162,74.881 C34.273,74.881 35.174,75.775 35.174,76.877 C35.174,77.980 34.273,78.874 33.162,78.874 C33.162,78.874 17.062,78.874 17.062,78.874 C15.950,78.874 15.049,77.980 15.049,76.877 C15.049,75.775 15.950,74.881 17.062,74.881 C17.062,74.881 23.099,74.881 23.099,74.881 C23.099,74.881 23.099,50.922 23.099,50.922 C23.099,50.752 23.127,50.589 23.168,50.432 C23.168,50.432 0.375,19.149 0.375,19.149 C-0.067,18.542 -0.130,17.739 0.214,17.071 C0.558,16.403 1.250,15.983 2.006,15.983 C2.006,15.983 36.479,15.983 36.479,15.983 C36.479,15.983 46.400,0.474 46.400,0.474 C46.697,0.008 47.320,-0.129 47.789,0.166 C48.258,0.462 48.397,1.078 48.100,1.544 C48.100,1.544 38.863,15.983 38.863,15.983 C38.863,15.983 48.721,15.983 48.721,15.983 C49.476,15.983 50.169,16.403 50.513,17.071 C50.857,17.739 50.794,18.542 50.352,19.149 ZM25.363,46.628 C25.363,46.628 38.964,27.962 38.964,27.962 C38.964,27.962 11.763,27.962 11.763,27.962 C11.763,27.962 25.363,46.628 25.363,46.628 ZM5.944,19.976 C5.944,19.976 10.308,25.966 10.308,25.966 C10.308,25.966 30.093,25.966 30.093,25.966 C30.093,25.966 33.924,19.976 33.924,19.976 C33.924,19.976 5.944,19.976 5.944,19.976 ZM36.309,19.976 C36.309,19.976 32.477,25.966 32.477,25.966 C32.477,25.966 40.419,25.966 40.419,25.966 C40.419,25.966 44.783,19.976 44.783,19.976 C44.783,19.976 36.309,19.976 36.309,19.976 ZM29.792,33.675 C29.474,33.675 29.216,33.420 29.216,33.104 C29.216,32.788 29.474,32.533 29.792,32.533 C30.110,32.533 30.368,32.788 30.368,33.104 C30.368,33.420 30.110,33.675 29.792,33.675 ZM26.747,40.191 C25.566,40.191 24.609,39.241 24.609,38.070 C24.609,36.898 25.566,35.949 26.747,35.949 C27.928,35.949 28.885,36.898 28.885,38.070 C28.885,39.241 27.928,40.191 26.747,40.191 ZM22.781,34.319 C22.123,34.319 21.590,33.790 21.590,33.137 C21.590,32.484 22.123,31.955 22.781,31.955 C23.439,31.955 23.972,32.484 23.972,33.137 C23.972,33.790 23.439,34.319 22.781,34.319 Z"/>
</symbol>
<symbol id="icon-cabin"  viewBox="0 0 73 58">
<path d="M71.000,57.000 C69.895,57.000 69.000,56.105 69.000,55.000 C69.000,55.000 69.000,49.000 69.000,49.000 C69.000,49.000 4.000,49.000 4.000,49.000 C4.000,49.000 4.000,56.000 4.000,56.000 C4.000,57.104 3.105,58.000 2.000,58.000 C0.896,58.000 0.000,57.104 0.000,56.000 C0.000,56.000 0.000,24.000 0.000,24.000 C0.000,22.896 0.896,22.000 2.000,22.000 C3.105,22.000 4.000,22.896 4.000,24.000 C4.000,24.000 4.000,34.000 4.000,34.000 C4.000,34.000 69.000,34.000 69.000,34.000 C69.000,34.000 69.000,32.000 69.000,32.000 C69.000,30.896 69.895,30.000 71.000,30.000 C72.105,30.000 73.000,30.896 73.000,32.000 C73.000,32.000 73.000,55.000 73.000,55.000 C73.000,56.105 72.105,57.000 71.000,57.000 ZM69.000,36.000 C69.000,36.000 4.000,36.000 4.000,36.000 C4.000,36.000 4.000,45.000 4.000,45.000 C4.000,45.000 69.000,45.000 69.000,45.000 C69.000,45.000 69.000,36.000 69.000,36.000 ZM55.000,21.000 C55.000,21.000 41.000,21.000 41.000,21.000 C40.447,21.000 40.000,20.553 40.000,20.000 C40.000,20.000 40.000,1.000 40.000,1.000 C40.000,0.447 40.447,0.000 41.000,0.000 C41.000,0.000 55.000,0.000 55.000,0.000 C55.553,0.000 56.000,0.447 56.000,1.000 C56.000,1.000 56.000,20.000 56.000,20.000 C56.000,20.553 55.553,21.000 55.000,21.000 ZM54.000,2.000 C54.000,2.000 42.000,2.000 42.000,2.000 C42.000,2.000 42.000,12.877 42.000,12.877 C42.480,12.701 43.068,12.552 43.707,12.552 C44.427,12.552 44.980,12.742 45.517,12.927 C46.127,13.137 46.759,13.354 47.762,13.354 C48.739,13.354 49.230,13.154 49.752,12.942 C50.226,12.751 50.716,12.552 51.488,12.552 C52.273,12.552 52.868,12.757 53.443,12.955 C53.628,13.019 53.813,13.079 54.000,13.135 C54.000,13.135 54.000,2.000 54.000,2.000 ZM54.000,14.171 C53.680,14.090 53.388,13.993 53.117,13.900 C52.574,13.713 52.106,13.552 51.488,13.552 C50.911,13.552 50.565,13.692 50.128,13.869 C49.568,14.097 48.934,14.354 47.762,14.354 C46.592,14.354 45.848,14.098 45.191,13.872 C44.691,13.700 44.260,13.552 43.707,13.552 C43.043,13.552 42.429,13.761 42.000,13.954 C42.000,13.954 42.000,19.000 42.000,19.000 C42.000,19.000 54.000,19.000 54.000,19.000 C54.000,19.000 54.000,14.171 54.000,14.171 Z"/>
</symbol>
</svg>