<svg xmlns="http://www.w3.org/2000/svg" style="display:none">
<symbol id="icon-level"  viewBox="0 0 27 27">
<path d="M26.315,9.806 C24.857,10.593 23.395,11.372 21.914,12.114 C21.215,12.465 20.532,12.411 19.899,11.856 C19.147,11.195 18.348,10.587 17.532,9.925 C17.070,10.487 16.612,11.041 16.158,11.598 C15.340,12.600 14.532,13.610 13.701,14.602 C13.493,14.850 13.496,15.011 13.692,15.271 C14.631,16.513 15.553,17.768 16.465,19.030 C17.059,19.853 17.360,20.735 16.824,21.709 C16.506,22.287 16.011,22.708 15.423,22.983 C13.720,23.777 12.006,24.548 10.290,25.313 C9.542,25.646 8.776,25.453 8.338,24.863 C7.914,24.291 7.943,23.504 8.441,22.945 C8.582,22.786 8.784,22.662 8.982,22.574 C10.303,21.983 11.632,21.407 12.957,20.824 C13.121,20.752 13.281,20.673 13.489,20.576 C13.038,20.028 12.609,19.508 12.182,18.986 C11.441,18.083 10.692,17.185 9.966,16.270 C9.700,15.935 9.455,15.573 9.257,15.194 C8.749,14.219 8.854,13.289 9.469,12.370 C10.525,10.788 11.542,9.180 12.642,7.480 C11.715,7.605 10.865,7.263 10.055,7.872 C9.134,8.564 8.126,9.141 7.155,9.767 C6.480,10.202 5.896,10.199 5.433,9.759 C4.864,9.218 4.902,8.374 5.544,7.922 C6.511,7.241 7.536,6.634 8.462,5.902 C9.410,5.152 10.416,4.878 11.639,4.773 C12.718,4.680 13.726,4.630 14.771,4.604 C16.388,4.565 17.726,5.254 18.828,6.370 C19.558,7.110 20.188,7.948 20.861,8.743 C20.968,8.869 21.067,9.003 21.189,9.158 C22.537,8.561 23.841,7.967 25.159,7.405 C25.986,7.053 26.720,7.423 26.954,8.261 C27.110,8.821 26.852,9.516 26.315,9.806 ZM18.490,4.958 C17.242,4.961 16.189,3.845 16.194,2.523 C16.200,1.142 17.343,0.004 18.727,-0.001 C20.079,-0.005 21.208,1.042 21.207,2.301 C21.207,3.646 19.870,4.954 18.490,4.958 ZM8.396,15.637 C9.141,16.598 9.871,17.539 10.702,18.611 C9.852,19.408 8.951,20.217 8.091,21.068 C6.300,22.839 4.529,24.630 2.755,26.419 C2.139,27.040 1.374,27.180 0.713,26.767 C0.104,26.386 -0.162,25.625 0.098,24.946 C0.165,24.770 0.273,24.593 0.406,24.461 C3.190,21.709 5.818,18.817 8.273,15.770 C8.316,15.716 8.367,15.668 8.396,15.637 Z"/>
</symbol>
  
</svg>