<svg xmlns="http://www.w3.org/2000/svg" style="display:none">
  <symbol id="icon-checkin-carbinno"  viewBox="0 0 95 143">
    <path d="M88.596,130.960 L30.681,142.806 C25.401,143.886 21.002,140.140 21.002,134.408 L21.002,130.000 L8.000,130.000 C3.582,130.000 0.000,126.418 0.000,122.000 L0.000,21.000 C0.000,16.582 3.582,13.000 8.000,13.000 L21.002,13.000 L21.002,8.580 C21.002,2.849 25.401,-0.897 30.681,0.183 L88.596,12.029 C92.168,12.760 95.000,17.025 95.000,21.573 L95.000,121.416 C95.000,125.963 92.168,130.229 88.596,130.960 ZM21.002,17.000 L8.000,17.000 C5.791,17.000 4.000,18.791 4.000,21.000 L4.000,122.400 C4.000,124.388 5.612,126.000 7.600,126.000 L21.002,126.000 L21.002,17.000 ZM38.103,66.359 C35.965,66.359 34.233,68.661 34.233,71.500 C34.233,74.339 35.965,76.641 38.103,76.641 C40.240,76.641 41.973,74.339 41.973,71.500 C41.973,68.661 40.240,66.359 38.103,66.359 Z"/>
  </symbol>
  <symbol id="icon-checkin-orderno" viewBox="0 0 102 133">
    <path d="M93.990,133.000 L21.990,133.000 C17.572,133.000 13.990,129.418 13.990,125.000 L13.990,119.000 L8.000,119.000 C3.582,119.000 0.000,115.418 0.000,111.000 L0.000,8.000 C0.000,3.582 3.582,-0.000 8.000,-0.000 L80.000,-0.000 C84.418,-0.000 88.000,3.582 88.000,8.000 L88.000,14.000 L93.990,14.000 C98.408,14.000 101.990,17.582 101.990,22.000 L101.990,125.000 C101.990,129.418 98.408,133.000 93.990,133.000 ZM84.000,7.600 C84.000,5.612 82.388,4.000 80.400,4.000 L8.000,4.000 C5.791,4.000 4.000,5.791 4.000,8.000 L4.000,111.400 C4.000,113.388 5.612,115.000 7.600,115.000 L13.990,115.000 L13.990,22.000 C13.990,17.582 17.572,14.000 21.990,14.000 L84.000,14.000 L84.000,7.600 ZM32.000,45.000 C32.000,46.105 32.895,47.000 34.000,47.000 L56.473,47.000 C57.577,47.000 58.473,46.105 58.473,45.000 C58.473,43.895 57.577,43.000 56.473,43.000 L34.000,43.000 C32.895,43.000 32.000,43.895 32.000,45.000 ZM82.000,62.000 L34.000,62.000 C32.895,62.000 32.000,62.895 32.000,64.000 C32.000,65.105 32.895,66.000 34.000,66.000 L82.000,66.000 C83.105,66.000 84.000,65.105 84.000,64.000 C84.000,62.895 83.105,62.000 82.000,62.000 ZM82.000,80.000 L34.000,80.000 C32.895,80.000 32.000,80.895 32.000,82.000 C32.000,83.105 32.895,84.000 34.000,84.000 L82.000,84.000 C83.105,84.000 84.000,83.105 84.000,82.000 C84.000,80.895 83.105,80.000 82.000,80.000 ZM82.000,99.000 L34.000,99.000 C32.895,99.000 32.000,99.895 32.000,101.000 C32.000,102.105 32.895,103.000 34.000,103.000 L82.000,103.000 C83.105,103.000 84.000,102.105 84.000,101.000 C84.000,99.895 83.105,99.000 82.000,99.000 Z"/>
  </symbol>
</svg>