<svg xmlns="http://www.w3.org/2000/svg" style="display:none">
<symbol id="icon-sold"  viewBox="0 0 142 109">
<path d="M134.000,109.000 L8.000,109.000 C3.582,109.000 0.000,105.418 0.000,101.000 L0.000,35.000 C0.000,30.582 3.582,27.000 8.000,27.000 L45.182,27.000 L44.995,26.346 L67.130,4.962 C67.053,4.652 67.000,4.334 67.000,4.000 C67.000,1.791 68.791,0.000 71.000,0.000 C73.209,0.000 75.000,1.791 75.000,4.000 C75.000,4.276 74.972,4.545 74.919,4.805 L97.005,26.305 L96.808,27.000 L134.000,27.000 C138.418,27.000 142.000,30.582 142.000,35.000 L142.000,101.000 C142.000,105.418 138.418,109.000 134.000,109.000 ZM74.278,6.284 C73.555,7.319 72.359,8.000 71.000,8.000 C69.692,8.000 68.542,7.363 67.812,6.392 L46.480,27.000 L95.559,27.000 L74.278,6.284 ZM138.000,35.000 C138.000,32.791 136.209,31.000 134.000,31.000 L8.000,31.000 C5.791,31.000 4.000,32.791 4.000,35.000 L4.000,101.000 C4.000,103.209 5.791,105.000 8.000,105.000 L134.000,105.000 C136.209,105.000 138.000,103.209 138.000,101.000 L138.000,35.000 ZM95.451,66.870 L89.297,66.870 L89.297,50.035 L95.451,50.035 C98.186,50.035 100.237,50.790 101.652,52.299 C102.995,53.713 103.679,55.765 103.679,58.453 C103.679,61.117 102.995,63.168 101.652,64.606 C100.237,66.115 98.186,66.870 95.451,66.870 ZM99.530,53.831 C98.563,52.865 97.030,52.393 94.932,52.393 L92.055,52.393 L92.055,64.512 L94.932,64.512 C97.030,64.512 98.563,64.017 99.530,63.050 C100.473,62.060 100.944,60.527 100.944,58.453 C100.944,56.331 100.473,54.774 99.530,53.831 ZM75.338,50.035 L78.073,50.035 L78.073,64.512 L87.174,64.512 L87.174,66.870 L75.338,66.870 L75.338,50.035 ZM78.474,80.422 L78.474,69.930 L81.232,69.930 L81.232,80.375 C81.232,82.568 80.619,84.242 79.393,85.397 C78.167,86.529 76.446,87.095 74.230,87.095 C71.990,87.095 70.269,86.529 69.090,85.421 C67.840,84.242 67.227,82.568 67.227,80.375 L67.227,69.930 L69.986,69.930 L69.986,80.422 C69.986,81.884 70.316,82.945 70.999,83.652 C71.660,84.336 72.744,84.690 74.230,84.690 C75.691,84.690 76.776,84.336 77.460,83.652 C78.120,82.945 78.474,81.884 78.474,80.422 ZM64.539,67.200 C61.945,67.200 59.917,66.351 58.456,64.701 C57.041,63.097 56.357,61.022 56.357,58.476 C56.357,55.906 57.041,53.831 58.456,52.228 C59.917,50.531 61.945,49.705 64.539,49.705 C67.108,49.705 69.136,50.531 70.621,52.204 C72.036,53.784 72.743,55.883 72.743,58.476 C72.743,61.070 72.036,63.144 70.621,64.724 C69.136,66.375 67.108,67.200 64.539,67.200 ZM68.570,53.808 C67.627,52.676 66.283,52.134 64.539,52.134 C62.794,52.134 61.450,52.723 60.483,53.902 C59.564,55.034 59.116,56.543 59.116,58.476 C59.116,60.386 59.564,61.895 60.483,63.027 C61.426,64.182 62.794,64.771 64.539,64.771 C66.283,64.771 67.627,64.205 68.570,63.097 C69.490,61.989 69.961,60.457 69.961,58.476 C69.961,56.496 69.490,54.939 68.570,53.808 ZM45.228,56.000 C45.581,56.189 46.548,56.543 48.104,57.038 C50.391,57.745 51.853,58.311 52.513,58.688 C53.975,59.561 54.706,60.763 54.706,62.319 C54.706,63.828 54.116,65.031 52.938,65.903 C51.759,66.752 50.085,67.200 47.939,67.200 C45.864,67.200 44.238,66.799 43.082,65.997 C41.668,65.007 40.890,63.451 40.772,61.305 L43.507,61.305 C43.695,62.579 44.143,63.498 44.874,64.040 C45.534,64.512 46.548,64.771 47.939,64.771 C49.165,64.771 50.155,64.559 50.863,64.158 C51.570,63.734 51.947,63.192 51.947,62.484 C51.947,61.588 51.405,60.881 50.368,60.362 C50.038,60.197 48.953,59.820 47.090,59.254 C45.016,58.594 43.719,58.122 43.224,57.839 C41.927,57.061 41.290,55.930 41.290,54.444 C41.290,52.959 41.903,51.780 43.177,50.931 C44.355,50.106 45.841,49.705 47.656,49.705 C49.637,49.705 51.193,50.106 52.301,50.931 C53.480,51.804 54.164,53.171 54.329,55.010 L51.594,55.010 C51.358,53.973 50.910,53.218 50.297,52.770 C49.684,52.299 48.741,52.087 47.515,52.087 C46.454,52.087 45.652,52.228 45.086,52.535 C44.379,52.888 44.049,53.478 44.049,54.279 C44.049,54.987 44.426,55.576 45.228,56.000 ZM56.427,69.600 C58.997,69.600 61.025,70.425 62.510,72.099 C63.925,73.679 64.632,75.778 64.632,78.371 C64.632,80.965 63.925,83.039 62.510,84.619 C61.025,86.269 58.997,87.095 56.427,87.095 C53.834,87.095 51.806,86.246 50.344,84.595 C48.930,82.992 48.246,80.917 48.246,78.371 C48.246,75.801 48.930,73.726 50.344,72.123 C51.806,70.425 53.834,69.600 56.427,69.600 ZM52.372,82.921 C53.315,84.077 54.683,84.666 56.427,84.666 C58.172,84.666 59.516,84.100 60.459,82.992 C61.379,81.884 61.850,80.352 61.850,78.371 C61.850,76.390 61.379,74.834 60.459,73.703 C59.516,72.571 58.172,72.029 56.427,72.029 C54.683,72.029 53.339,72.618 52.372,73.797 C51.453,74.929 51.005,76.438 51.005,78.371 C51.005,80.281 51.453,81.790 52.372,82.921 ZM97.030,72.288 L91.513,72.288 L91.513,86.765 L88.754,86.765 L88.754,72.288 L83.237,72.288 L83.237,69.930 L97.030,69.930 L97.030,72.288 Z"/>
</symbol>
<symbol id="icon-photos"  viewBox="0 0 30 23">
<path d="M2.000,23.000 C2.000,23.000 2.000,21.000 2.000,21.000 C2.000,21.000 28.000,21.000 28.000,21.000 C28.000,21.000 28.000,2.000 28.000,2.000 C28.000,2.000 30.000,2.000 30.000,2.000 C30.000,2.000 30.000,23.000 30.000,23.000 C30.000,23.000 2.000,23.000 2.000,23.000 ZM-0.000,-0.000 C-0.000,-0.000 26.000,-0.000 26.000,-0.000 C26.000,-0.000 26.000,19.000 26.000,19.000 C26.000,19.000 -0.000,19.000 -0.000,19.000 C-0.000,19.000 -0.000,-0.000 -0.000,-0.000 ZM8.000,10.000 C8.000,10.000 12.000,10.000 12.000,10.000 C12.000,10.000 12.000,14.000 12.000,14.000 C12.000,14.000 14.000,14.000 14.000,14.000 C14.000,14.000 14.000,10.000 14.000,10.000 C14.000,10.000 18.000,10.000 18.000,10.000 C18.000,10.000 18.000,8.000 18.000,8.000 C18.000,8.000 14.000,8.000 14.000,8.000 C14.000,8.000 14.000,4.000 14.000,4.000 C14.000,4.000 12.000,4.000 12.000,4.000 C12.000,4.000 12.000,8.000 12.000,8.000 C12.000,8.000 8.000,8.000 8.000,8.000 C8.000,8.000 8.000,10.000 8.000,10.000 Z"/>
</symbol>
<symbol id="icon-position"  viewBox="0 0 34 41">
<path d="M16.996,39.991 C16.996,39.991 0.996,28.226 0.996,16.910 C0.996,8.118 8.160,0.991 16.996,0.991 C25.833,0.991 32.996,8.118 32.996,16.910 C32.996,28.122 16.996,39.991 16.996,39.991 ZM16.974,12.140 C14.323,12.140 12.174,14.278 12.174,16.916 C12.174,19.553 14.323,21.691 16.974,21.691 C19.625,21.691 21.774,19.553 21.774,16.916 C21.774,14.278 19.625,12.140 16.974,12.140 Z"/>
</symbol>
<symbol id="icon-right"  viewBox="0 0 27 20">
<path d="M26.869,2.131 C26.869,2.131 9.899,19.102 9.899,19.102 C9.899,19.102 7.777,16.980 7.777,16.980 C7.777,16.980 7.794,16.964 7.794,16.964 C7.794,16.964 0.013,9.182 0.013,9.182 C0.013,9.182 2.135,7.061 2.135,7.061 C2.135,7.061 9.916,14.842 9.916,14.842 C9.916,14.842 24.748,0.010 24.748,0.010 C24.748,0.010 26.869,2.131 26.869,2.131 Z"/>
</symbol>
  
</svg>