<svg xmlns="http://www.w3.org/2000/svg" style="display:none">
<symbol id="icon-qn"  viewBox="0 0 111 63">
<path d="M108.930,3.895 C108.930,3.895 107.459,4.087 107.459,4.087 C104.451,4.471 103.875,6.647 102.787,10.295 C102.787,10.295 92.675,44.790 92.675,44.790 C92.291,46.134 92.035,47.094 90.307,47.094 C88.771,47.094 88.259,46.070 87.683,44.918 C87.683,44.918 70.724,10.487 70.724,10.487 C70.212,11.959 70.020,12.791 69.636,14.007 C69.636,14.007 64.324,31.926 64.324,31.926 C63.108,35.958 62.532,38.006 62.532,39.542 C62.532,40.310 62.596,42.230 64.964,42.806 C64.964,42.806 65.796,42.998 65.796,42.998 C66.628,43.190 67.780,43.126 67.780,44.342 C67.780,45.046 67.460,45.942 65.732,45.942 C63.812,45.942 61.892,45.622 60.036,45.622 C57.860,45.622 55.684,45.942 53.444,45.942 C52.740,45.942 51.972,45.750 51.972,44.726 C51.972,43.446 52.868,43.446 54.148,43.126 C54.148,43.126 56.324,42.614 56.324,42.614 C58.948,41.974 59.588,37.750 60.804,33.590 C60.804,33.590 67.780,9.911 67.780,9.911 C68.356,7.927 68.420,6.967 68.420,6.583 C68.420,5.367 67.908,4.471 66.948,4.279 C66.948,4.279 65.540,4.023 65.540,4.023 C64.644,3.895 63.428,3.895 63.428,2.615 C63.428,1.207 64.772,1.143 65.284,1.143 C67.204,1.143 68.996,1.335 70.852,1.335 C73.283,1.335 75.715,1.143 78.211,1.143 C79.107,1.143 79.107,1.463 79.363,1.975 C79.363,1.975 93.187,31.926 93.187,31.926 C93.187,31.926 99.395,10.999 99.395,10.999 C99.587,10.359 100.291,7.735 100.291,6.391 C100.291,4.535 99.267,4.151 97.475,3.959 C97.475,3.959 95.939,3.767 95.939,3.767 C95.491,3.703 94.595,3.575 94.595,2.551 C94.595,1.143 96.067,1.143 96.451,1.143 C98.819,1.143 101.187,1.399 103.491,1.399 C105.347,1.399 107.267,1.143 109.186,1.143 C109.571,1.143 110.658,1.143 110.658,2.231 C110.658,3.575 109.506,3.831 108.930,3.895 ZM31.108,46.966 C28.164,47.734 25.732,48.438 21.508,50.038 C25.604,49.654 28.548,50.230 30.596,50.869 C34.307,52.021 36.611,53.685 40.771,53.685 C45.379,53.685 47.235,51.574 48.579,50.038 C49.539,48.950 49.923,48.694 50.307,48.694 C50.691,48.694 51.395,48.950 51.395,49.846 C51.395,51.509 49.539,54.197 47.363,56.245 C43.459,59.893 38.723,62.133 33.987,62.133 C29.572,62.133 25.540,59.957 21.316,57.013 C18.692,55.157 16.132,53.173 13.188,53.173 C11.012,53.173 9.604,54.453 8.452,55.477 C7.108,56.629 5.636,58.037 3.268,58.037 C1.028,58.037 0.004,57.077 0.004,55.733 C0.004,52.470 4.484,51.702 7.428,51.126 C15.684,49.462 18.436,48.950 23.684,47.030 C11.076,46.326 3.396,36.918 3.396,26.166 C3.396,12.727 16.004,-0.009 33.283,-0.009 C46.211,-0.009 54.787,8.887 54.787,20.470 C54.787,40.566 35.779,45.686 31.108,46.966 ZM33.731,2.871 C22.340,2.871 15.236,19.062 15.236,32.246 C15.236,41.142 20.100,44.214 24.708,44.214 C34.691,44.214 42.947,31.670 42.947,14.454 C42.947,4.727 37.699,2.871 33.731,2.871 Z"/>
</symbol>
<symbol id="icon-sold"  viewBox="0 0 142 109">
<path d="M134.000,109.000 C134.000,109.000 8.000,109.000 8.000,109.000 C3.582,109.000 0.000,105.418 0.000,101.000 C0.000,101.000 0.000,35.000 0.000,35.000 C0.000,30.582 3.582,27.000 8.000,27.000 C8.000,27.000 45.182,27.000 45.182,27.000 C45.182,27.000 44.995,26.346 44.995,26.346 C44.995,26.346 67.130,4.962 67.130,4.962 C67.053,4.652 67.000,4.334 67.000,4.000 C67.000,1.791 68.791,0.000 71.000,0.000 C73.209,0.000 75.000,1.791 75.000,4.000 C75.000,4.276 74.972,4.545 74.919,4.805 C74.919,4.805 97.005,26.305 97.005,26.305 C97.005,26.305 96.808,27.000 96.808,27.000 C96.808,27.000 134.000,27.000 134.000,27.000 C138.418,27.000 142.000,30.582 142.000,35.000 C142.000,35.000 142.000,101.000 142.000,101.000 C142.000,105.418 138.418,109.000 134.000,109.000 ZM74.278,6.284 C73.555,7.319 72.359,8.000 71.000,8.000 C69.692,8.000 68.542,7.363 67.812,6.392 C67.812,6.392 46.480,27.000 46.480,27.000 C46.480,27.000 95.559,27.000 95.559,27.000 C95.559,27.000 74.278,6.284 74.278,6.284 ZM138.000,35.000 C138.000,32.791 136.209,31.000 134.000,31.000 C134.000,31.000 8.000,31.000 8.000,31.000 C5.791,31.000 4.000,32.791 4.000,35.000 C4.000,35.000 4.000,101.000 4.000,101.000 C4.000,103.209 5.791,105.000 8.000,105.000 C8.000,105.000 134.000,105.000 134.000,105.000 C136.209,105.000 138.000,103.209 138.000,101.000 C138.000,101.000 138.000,35.000 138.000,35.000 ZM104.608,75.832 C103.918,76.584 103.083,77.150 102.105,77.530 C101.127,77.911 99.869,78.101 98.330,78.101 C98.330,78.101 91.174,78.101 91.174,78.101 C91.174,78.101 91.174,57.941 91.174,57.941 C91.174,57.941 98.126,57.941 98.126,57.941 C99.884,57.941 101.210,58.113 102.105,58.456 C102.999,58.800 103.823,59.380 104.577,60.196 C105.330,61.012 105.921,62.071 106.350,63.373 C106.779,64.675 106.994,66.293 106.994,68.227 C106.994,69.969 106.769,71.484 106.319,72.772 C105.869,74.060 105.299,75.080 104.608,75.832 ZM102.713,64.538 C102.477,63.678 102.110,63.000 101.613,62.505 C101.116,62.011 100.511,61.686 99.799,61.530 C99.264,61.411 98.233,61.351 96.704,61.351 C96.704,61.351 94.976,61.351 94.976,61.351 C94.976,61.351 94.976,74.690 94.976,74.690 C94.976,74.690 97.835,74.690 97.835,74.690 C99.060,74.690 99.948,74.590 100.498,74.388 C101.048,74.187 101.498,73.882 101.849,73.475 C102.199,73.067 102.490,72.424 102.721,71.544 C102.951,70.665 103.066,69.507 103.066,68.069 C103.066,66.576 102.948,65.399 102.713,64.538 ZM75.181,58.106 C75.181,58.106 78.983,58.106 78.983,58.106 C78.983,58.106 78.983,74.690 78.983,74.690 C78.983,74.690 88.472,74.690 88.472,74.690 C88.472,74.690 88.472,78.101 88.472,78.101 C88.472,78.101 75.181,78.101 75.181,78.101 C75.181,78.101 75.181,58.106 75.181,58.106 ZM62.943,78.445 C60.210,78.445 58.052,77.615 56.471,75.956 C54.669,74.058 53.769,71.454 53.769,68.145 C53.769,65.743 54.174,63.765 54.986,62.211 C55.798,60.657 56.858,59.499 58.167,58.738 C59.477,57.978 61.063,57.597 62.928,57.597 C65.630,57.597 67.831,58.500 69.534,60.306 C71.235,62.112 72.086,64.684 72.086,68.021 C72.086,71.395 71.186,74.030 69.384,75.928 C67.803,77.606 65.656,78.445 62.943,78.445 ZM66.719,62.754 C65.759,61.635 64.503,61.076 62.951,61.076 C61.399,61.076 60.135,61.640 59.159,62.768 C58.184,63.895 57.696,65.642 57.696,68.007 C57.696,70.327 58.200,72.066 59.207,73.226 C60.213,74.386 61.462,74.965 62.951,74.965 C64.451,74.965 65.694,74.390 66.680,73.240 C67.666,72.089 68.159,70.322 68.159,67.938 C68.159,65.601 67.679,63.873 66.719,62.754 ZM44.550,65.547 C46.466,66.034 47.851,66.545 48.704,67.081 C49.557,67.618 50.208,68.309 50.658,69.157 C51.109,70.005 51.334,71.034 51.334,72.244 C51.334,73.995 50.718,75.466 49.488,76.657 C48.257,77.849 46.332,78.445 43.714,78.445 C39.085,78.445 36.509,76.139 35.985,71.527 C35.985,71.527 39.708,71.142 39.708,71.142 C40.127,73.719 41.499,75.007 43.824,75.007 C44.976,75.007 45.882,74.743 46.542,74.216 C47.202,73.690 47.532,73.037 47.532,72.257 C47.532,71.799 47.416,71.410 47.186,71.089 C46.956,70.769 46.605,70.505 46.134,70.299 C45.662,70.093 44.521,69.747 42.709,69.262 C41.085,68.832 39.897,68.365 39.143,67.861 C38.389,67.358 37.789,66.696 37.344,65.876 C36.899,65.056 36.676,64.174 36.676,63.231 C36.676,62.131 36.962,61.142 37.533,60.263 C38.103,59.383 38.891,58.719 39.897,58.270 C40.902,57.822 42.143,57.597 43.620,57.597 C45.840,57.597 47.574,58.124 48.820,59.178 C50.066,60.233 50.726,61.741 50.799,63.703 C50.799,63.703 46.982,63.882 46.982,63.882 C46.814,62.800 46.453,62.044 45.898,61.612 C45.343,61.182 44.552,60.966 43.526,60.966 C42.499,60.966 41.709,61.154 41.154,61.528 C40.598,61.903 40.321,62.369 40.321,62.927 C40.321,63.475 40.573,63.937 41.077,64.311 C41.581,64.686 42.738,65.098 44.550,65.547 Z"/>
</symbol>
<symbol id="icon-photos"  viewBox="0 0 30 23">
<path d="M2.000,23.000 C2.000,23.000 2.000,21.000 2.000,21.000 C2.000,21.000 28.000,21.000 28.000,21.000 C28.000,21.000 28.000,2.000 28.000,2.000 C28.000,2.000 30.000,2.000 30.000,2.000 C30.000,2.000 30.000,23.000 30.000,23.000 C30.000,23.000 2.000,23.000 2.000,23.000 ZM-0.000,-0.000 C-0.000,-0.000 26.000,-0.000 26.000,-0.000 C26.000,-0.000 26.000,19.000 26.000,19.000 C26.000,19.000 -0.000,19.000 -0.000,19.000 C-0.000,19.000 -0.000,-0.000 -0.000,-0.000 ZM8.000,10.000 C8.000,10.000 12.000,10.000 12.000,10.000 C12.000,10.000 12.000,14.000 12.000,14.000 C12.000,14.000 14.000,14.000 14.000,14.000 C14.000,14.000 14.000,10.000 14.000,10.000 C14.000,10.000 18.000,10.000 18.000,10.000 C18.000,10.000 18.000,8.000 18.000,8.000 C18.000,8.000 14.000,8.000 14.000,8.000 C14.000,8.000 14.000,4.000 14.000,4.000 C14.000,4.000 12.000,4.000 12.000,4.000 C12.000,4.000 12.000,8.000 12.000,8.000 C12.000,8.000 8.000,8.000 8.000,8.000 C8.000,8.000 8.000,10.000 8.000,10.000 Z"/>
</symbol>
<symbol id="icon-position"  viewBox="0 0 34 41">
<path d="M16.996,39.991 C16.996,39.991 0.996,28.226 0.996,16.910 C0.996,8.118 8.160,0.991 16.996,0.991 C25.833,0.991 32.996,8.118 32.996,16.910 C32.996,28.122 16.996,39.991 16.996,39.991 ZM16.974,12.140 C14.323,12.140 12.174,14.278 12.174,16.916 C12.174,19.553 14.323,21.691 16.974,21.691 C19.625,21.691 21.774,19.553 21.774,16.916 C21.774,14.278 19.625,12.140 16.974,12.140 Z"/>
</symbol>
<symbol id="icon-right"  viewBox="0 0 27 20">
<path d="M26.869,2.131 C26.869,2.131 9.899,19.102 9.899,19.102 C9.899,19.102 7.777,16.980 7.777,16.980 C7.777,16.980 7.794,16.964 7.794,16.964 C7.794,16.964 0.013,9.182 0.013,9.182 C0.013,9.182 2.135,7.061 2.135,7.061 C2.135,7.061 9.916,14.842 9.916,14.842 C9.916,14.842 24.748,0.010 24.748,0.010 C24.748,0.010 26.869,2.131 26.869,2.131 Z"/>
</symbol>
<symbol id="icon-right"  viewBox="0 0 27 20">
<path d="M26.869,2.131 C26.869,2.131 9.899,19.102 9.899,19.102 C9.899,19.102 7.777,16.980 7.777,16.980 C7.777,16.980 7.794,16.964 7.794,16.964 C7.794,16.964 0.013,9.182 0.013,9.182 C0.013,9.182 2.135,7.061 2.135,7.061 C2.135,7.061 9.916,14.842 9.916,14.842 C9.916,14.842 24.748,0.010 24.748,0.010 C24.748,0.010 26.869,2.131 26.869,2.131 Z"/>
</symbol>
</svg>