<svg xmlns="http://www.w3.org/2000/svg" style="display:none">
  <symbol id="icon-qn"  viewBox="0 0 111 63">
    <path d="M108.930,3.895 C108.930,3.895 107.459,4.087 107.459,4.087 C104.451,4.471 103.875,6.647 102.787,10.295 C102.787,10.295 92.675,44.790 92.675,44.790 C92.291,46.134 92.035,47.094 90.307,47.094 C88.771,47.094 88.259,46.070 87.683,44.918 C87.683,44.918 70.724,10.487 70.724,10.487 C70.212,11.959 70.020,12.791 69.636,14.007 C69.636,14.007 64.324,31.926 64.324,31.926 C63.108,35.958 62.532,38.006 62.532,39.542 C62.532,40.310 62.596,42.230 64.964,42.806 C64.964,42.806 65.796,42.998 65.796,42.998 C66.628,43.190 67.780,43.126 67.780,44.342 C67.780,45.046 67.460,45.942 65.732,45.942 C63.812,45.942 61.892,45.622 60.036,45.622 C57.860,45.622 55.684,45.942 53.444,45.942 C52.740,45.942 51.972,45.750 51.972,44.726 C51.972,43.446 52.868,43.446 54.148,43.126 C54.148,43.126 56.324,42.614 56.324,42.614 C58.948,41.974 59.588,37.750 60.804,33.590 C60.804,33.590 67.780,9.911 67.780,9.911 C68.356,7.927 68.420,6.967 68.420,6.583 C68.420,5.367 67.908,4.471 66.948,4.279 C66.948,4.279 65.540,4.023 65.540,4.023 C64.644,3.895 63.428,3.895 63.428,2.615 C63.428,1.207 64.772,1.143 65.284,1.143 C67.204,1.143 68.996,1.335 70.852,1.335 C73.283,1.335 75.715,1.143 78.211,1.143 C79.107,1.143 79.107,1.463 79.363,1.975 C79.363,1.975 93.187,31.926 93.187,31.926 C93.187,31.926 99.395,10.999 99.395,10.999 C99.587,10.359 100.291,7.735 100.291,6.391 C100.291,4.535 99.267,4.151 97.475,3.959 C97.475,3.959 95.939,3.767 95.939,3.767 C95.491,3.703 94.595,3.575 94.595,2.551 C94.595,1.143 96.067,1.143 96.451,1.143 C98.819,1.143 101.187,1.399 103.491,1.399 C105.347,1.399 107.267,1.143 109.186,1.143 C109.571,1.143 110.658,1.143 110.658,2.231 C110.658,3.575 109.506,3.831 108.930,3.895 ZM31.108,46.966 C28.164,47.734 25.732,48.438 21.508,50.038 C25.604,49.654 28.548,50.230 30.596,50.869 C34.307,52.021 36.611,53.685 40.771,53.685 C45.379,53.685 47.235,51.574 48.579,50.038 C49.539,48.950 49.923,48.694 50.307,48.694 C50.691,48.694 51.395,48.950 51.395,49.846 C51.395,51.509 49.539,54.197 47.363,56.245 C43.459,59.893 38.723,62.133 33.987,62.133 C29.572,62.133 25.540,59.957 21.316,57.013 C18.692,55.157 16.132,53.173 13.188,53.173 C11.012,53.173 9.604,54.453 8.452,55.477 C7.108,56.629 5.636,58.037 3.268,58.037 C1.028,58.037 0.004,57.077 0.004,55.733 C0.004,52.470 4.484,51.702 7.428,51.126 C15.684,49.462 18.436,48.950 23.684,47.030 C11.076,46.326 3.396,36.918 3.396,26.166 C3.396,12.727 16.004,-0.009 33.283,-0.009 C46.211,-0.009 54.787,8.887 54.787,20.470 C54.787,40.566 35.779,45.686 31.108,46.966 ZM33.731,2.871 C22.340,2.871 15.236,19.062 15.236,32.246 C15.236,41.142 20.100,44.214 24.708,44.214 C34.691,44.214 42.947,31.670 42.947,14.454 C42.947,4.727 37.699,2.871 33.731,2.871 Z"/>
  </symbol>
  <symbol id="icon-vy" viewBox="0 0 89 47">
    <path d="M86.900,3.057 C86.900,3.057 85.172,3.377 85.172,3.377 C82.932,3.825 80.884,5.809 79.220,7.857 C79.220,7.857 65.268,25.200 65.268,25.200 C65.268,25.200 62.004,36.080 62.004,36.080 C61.748,36.976 61.364,38.576 61.364,39.408 C61.364,40.560 61.940,41.584 62.836,41.712 C62.836,41.712 64.244,41.968 64.244,41.968 C65.140,42.096 66.356,42.096 66.356,43.376 C66.356,44.784 65.012,44.848 64.500,44.848 C60.980,44.848 57.652,44.528 54.324,44.528 C51.125,44.528 47.925,44.848 44.533,44.848 C43.893,44.848 42.677,44.784 42.677,43.440 C42.677,42.608 43.317,42.160 44.213,42.032 C44.213,42.032 45.941,41.840 45.941,41.840 C48.949,41.520 49.653,38.320 50.101,36.912 C50.101,36.912 53.556,25.392 53.556,25.392 C53.556,25.392 46.325,6.385 46.325,6.385 C45.600,4.479 45.101,3.825 44.412,3.524 C41.505,5.037 39.000,8.875 37.300,11.313 C37.300,11.313 15.348,42.352 15.348,42.352 C14.260,43.824 13.172,46.000 10.357,46.000 C8.693,46.000 8.117,44.976 7.925,42.800 C7.925,42.800 5.301,8.945 5.301,8.945 C5.109,6.385 5.045,3.441 2.677,3.121 C2.677,3.121 1.717,2.993 1.717,2.993 C1.205,2.929 -0.011,2.929 -0.011,1.457 C-0.011,0.049 1.333,0.049 1.909,0.049 C5.045,0.049 8.053,0.305 11.061,0.305 C14.132,0.305 17.204,0.049 20.404,0.049 C21.876,0.049 22.196,0.561 22.196,1.393 C22.196,2.545 21.236,2.737 20.980,2.801 C20.980,2.801 19.636,2.993 19.636,2.993 C17.204,3.313 16.436,4.401 16.436,7.025 C16.436,8.113 16.628,11.249 16.756,12.721 C16.756,12.721 18.484,32.496 18.484,32.496 C18.484,32.496 34.292,10.033 34.292,10.033 C34.740,9.393 36.404,7.089 36.404,5.489 C36.404,4.337 35.700,3.313 34.356,3.121 C34.356,3.121 33.140,2.929 33.140,2.929 C31.732,2.737 30.196,2.929 30.196,1.521 C30.196,1.009 30.260,0.049 31.860,0.049 C34.484,0.049 36.980,0.305 39.412,0.305 C40.083,0.305 40.756,0.284 41.432,0.256 C41.883,0.067 42.418,0.049 42.741,0.049 C43.380,0.049 44.014,0.076 44.648,0.105 C45.403,0.074 46.170,0.049 46.964,0.049 C47.371,0.049 47.907,0.027 48.244,0.323 C49.556,0.414 50.859,0.497 52.148,0.497 C55.476,0.497 58.740,0.049 62.324,0.049 C62.772,0.049 63.924,0.049 63.924,1.265 C63.924,2.865 62.452,2.801 61.172,3.057 C61.172,3.057 59.700,3.313 59.700,3.313 C58.548,3.505 58.228,4.401 58.228,4.785 C58.228,5.233 58.420,5.745 59.316,8.305 C59.316,8.305 64.052,21.553 64.052,21.553 C64.052,21.553 72.500,10.609 72.500,10.609 C75.636,6.577 76.724,5.681 76.724,4.593 C76.724,3.121 75.124,3.185 74.164,3.057 C74.164,3.057 72.692,2.865 72.692,2.865 C71.860,2.737 71.412,2.353 71.412,1.585 C71.412,0.113 73.012,0.049 73.652,0.049 C76.020,0.049 78.196,0.433 80.436,0.433 C82.740,0.433 85.044,0.049 87.476,0.049 C87.988,0.049 89.139,0.113 89.139,1.329 C89.139,2.737 87.924,2.865 86.900,3.057 Z"/>
  </symbol>
  <symbol id="icon-ma" viewBox="0 0 104 47">
    <path d="M101.747,46.723 C98.611,46.723 95.603,46.467 92.595,46.467 C89.523,46.467 86.452,46.723 83.252,46.723 C82.548,46.723 81.460,46.659 81.460,45.443 C81.460,44.739 81.908,44.099 82.676,43.971 C82.676,43.971 84.020,43.779 84.020,43.779 C87.795,43.267 87.411,40.579 87.348,37.571 C87.348,37.571 87.156,31.299 87.156,31.299 C87.156,31.299 73.716,31.299 73.716,31.299 C73.716,31.299 70.004,36.739 70.004,36.739 C69.108,38.019 68.276,39.875 68.276,41.283 C68.276,43.011 69.748,43.459 71.476,43.779 C71.476,43.779 72.756,44.035 72.756,44.035 C73.332,44.163 74.100,44.355 74.100,45.251 C74.100,46.659 73.012,46.723 72.436,46.723 C69.812,46.723 67.316,46.467 64.884,46.467 C62.452,46.467 60.020,46.723 57.332,46.723 C57.177,46.723 57.003,46.726 56.829,46.714 C53.472,46.690 50.280,46.403 47.092,46.403 C43.892,46.403 40.692,46.723 37.300,46.723 C36.660,46.723 35.444,46.659 35.444,45.315 C35.444,44.419 36.276,43.971 36.980,43.907 C36.980,43.907 38.004,43.843 38.004,43.843 C41.524,43.651 42.292,40.835 42.868,38.787 C42.868,38.787 50.356,10.948 50.356,10.948 C50.356,10.948 50.100,10.948 50.100,10.948 C50.100,10.948 28.788,42.819 28.788,42.819 C26.549,46.147 26.421,46.403 24.437,46.403 C22.133,46.403 22.261,46.211 22.133,40.387 C22.133,40.387 21.429,10.308 21.429,10.308 C21.429,10.308 21.109,10.244 21.109,10.244 C21.109,10.244 13.749,31.683 13.749,31.683 C12.277,35.971 11.637,38.339 11.637,40.131 C11.637,42.947 13.237,43.459 15.221,43.651 C15.221,43.651 16.437,43.779 16.437,43.779 C17.461,43.907 17.653,44.739 17.653,45.187 C17.653,46.723 16.053,46.723 15.669,46.723 C13.429,46.723 11.253,46.467 9.077,46.467 C6.645,46.467 4.213,46.723 1.717,46.723 C0.821,46.723 -0.011,46.467 -0.011,45.315 C-0.011,44.227 0.757,43.907 1.333,43.779 C1.333,43.779 2.421,43.587 2.421,43.587 C5.301,43.075 6.133,43.395 8.309,37.443 C8.309,37.443 17.973,10.692 17.973,10.692 C18.741,8.452 18.997,7.748 18.997,7.236 C18.997,5.892 18.229,5.188 17.525,5.060 C17.525,5.060 16.117,4.804 16.117,4.804 C15.221,4.676 14.005,4.676 14.005,3.396 C14.005,1.988 15.349,1.924 15.861,1.924 C22.645,1.924 22.453,2.244 30.516,1.924 C31.668,1.860 32.116,1.860 32.180,3.780 C32.180,3.780 33.076,31.299 33.076,31.299 C33.076,31.299 51.444,3.268 51.444,3.268 C52.276,1.988 52.596,1.924 53.748,1.924 C55.476,1.924 57.140,2.052 58.804,2.052 C61.556,2.052 64.308,1.924 67.251,1.924 C67.891,1.924 69.107,1.988 69.107,3.332 C69.107,4.164 68.467,4.612 67.571,4.740 C67.571,4.740 65.843,4.932 65.843,4.932 C63.092,5.252 62.260,7.620 61.684,9.860 C61.684,9.860 54.708,37.955 54.708,37.955 C54.196,40.003 54.132,40.835 54.132,41.283 C54.132,43.011 55.092,43.459 55.860,43.587 C55.860,43.587 57.268,43.843 57.268,43.843 C57.467,43.876 57.687,43.910 57.905,43.961 C61.857,43.072 64.003,39.573 66.932,35.459 C66.932,35.459 89.971,3.012 89.971,3.012 C91.059,1.412 91.955,0.004 94.131,0.004 C96.563,0.004 96.499,1.668 96.627,4.292 C96.627,4.292 98.355,37.827 98.355,37.827 C98.611,43.139 99.571,43.523 101.811,43.779 C101.811,43.779 102.451,43.843 102.451,43.843 C103.283,43.907 103.667,44.611 103.667,45.315 C103.667,46.723 102.387,46.723 101.747,46.723 ZM86.452,12.484 C86.452,12.484 75.828,28.099 75.828,28.099 C75.828,28.099 87.028,28.099 87.028,28.099 C87.028,28.099 86.452,12.484 86.452,12.484 Z"/>
  </symbol>
  <symbol id="icon-lg" viewBox="0 0 92 48">
    <path d="M90.608,5.239 C89.008,10.551 88.560,11.575 88.496,11.831 C88.240,12.471 87.984,12.983 87.152,12.983 C85.552,12.983 85.488,11.383 85.424,10.295 C85.424,10.295 85.296,7.607 85.296,7.607 C85.104,3.895 85.232,2.871 82.160,2.871 C74.033,2.871 53.873,11.639 53.873,31.094 C53.873,36.598 56.497,44.150 66.097,44.150 C68.273,44.150 68.785,43.702 69.425,41.398 C69.425,41.398 71.537,34.166 71.537,34.166 C72.177,31.926 72.177,31.030 72.177,30.838 C72.177,29.686 71.601,28.662 70.705,28.534 C70.705,28.534 69.297,28.278 69.297,28.278 C68.401,28.150 67.185,28.150 67.185,26.870 C67.185,25.462 68.529,25.398 69.041,25.398 C72.561,25.398 75.888,25.718 79.216,25.718 C82.416,25.718 85.616,25.398 89.008,25.398 C89.648,25.398 90.864,25.462 90.864,26.806 C90.864,27.638 90.224,28.086 89.328,28.214 C89.328,28.214 87.600,28.406 87.600,28.406 C84.592,28.726 83.888,31.926 83.440,33.334 C83.440,33.334 80.688,42.678 80.688,42.678 C80.368,43.766 80.368,44.790 78.512,45.302 C74.481,46.454 67.825,47.094 64.241,47.094 C51.953,47.094 42.033,40.246 42.033,29.558 C42.033,13.047 61.297,-0.009 82.928,-0.009 C84.848,-0.009 91.376,0.119 91.376,2.231 C91.376,2.487 91.312,2.871 90.608,5.239 ZM34.097,45.942 C30.321,45.942 18.546,45.622 13.554,45.622 C9.650,45.622 5.874,45.942 1.842,45.942 C1.202,45.942 -0.014,45.878 -0.014,44.534 C-0.014,43.702 0.626,43.254 1.522,43.126 C1.522,43.126 3.250,42.934 3.250,42.934 C6.258,42.614 6.962,39.414 7.410,38.006 C7.410,38.006 15.730,9.911 15.730,9.911 C15.922,9.335 16.370,7.607 16.370,6.583 C16.370,4.471 14.898,4.151 13.490,4.023 C12.594,3.959 11.378,3.831 11.378,2.615 C11.378,1.207 12.722,1.143 13.234,1.143 C16.754,1.143 20.082,1.463 23.409,1.463 C26.609,1.463 29.809,1.143 33.201,1.143 C33.841,1.143 35.057,1.207 35.057,2.551 C35.057,4.087 33.265,3.895 31.793,4.151 C29.233,4.535 28.465,6.199 27.633,9.079 C27.633,9.079 19.826,35.446 19.826,35.446 C18.930,38.518 18.866,39.990 18.866,40.438 C18.866,42.678 20.402,42.614 21.874,42.678 C21.874,42.678 23.857,42.742 23.857,42.742 C28.209,42.870 31.921,41.974 34.609,37.110 C34.609,37.110 35.377,35.702 35.377,35.702 C35.761,34.998 36.145,34.358 37.169,34.358 C37.937,34.358 38.449,34.870 38.449,35.638 C38.449,36.022 38.385,36.854 36.721,42.294 C35.569,45.942 36.081,45.942 34.097,45.942 Z"/>
  </symbol>
</svg>