<svg xmlns="http://www.w3.org/2000/svg" style="display:none">
<symbol id="icon-confirm"  viewBox="0 0 94 116">
<path d="M93.088,67.516 C91.879,75.297 89.071,82.477 84.684,89.009 C76.606,101.033 65.321,109.006 52.006,114.242 C45.981,116.611 47.963,116.537 42.250,114.291 C31.951,110.243 22.833,104.342 15.257,96.226 C7.310,87.712 2.366,77.713 0.696,66.155 C0.435,64.346 0.231,62.529 0.000,60.715 C0.000,42.546 0.000,24.378 0.000,6.210 C0.000,4.159 0.000,2.108 0.000,0.000 C2.073,0.000 4.147,0.000 6.221,0.000 C6.835,0.000 7.449,0.000 8.064,0.000 C9.637,0.649 11.181,1.385 12.790,1.932 C20.142,4.434 27.600,6.385 35.480,5.747 C39.565,5.416 43.258,4.132 46.144,1.050 C46.369,0.809 46.639,0.610 46.888,0.392 C47.809,1.207 48.614,2.037 49.533,2.711 C52.731,5.056 56.462,5.669 60.293,5.733 C66.400,5.836 72.314,4.599 78.111,2.809 C80.757,1.992 83.330,0.943 85.936,0.000 C86.551,0.000 87.165,0.000 87.779,0.000 C89.834,0.000 91.888,0.000 94.000,0.000 C94.000,2.069 94.000,4.139 94.000,6.210 C94.000,24.378 94.000,42.546 94.000,60.715 C93.699,62.982 93.440,65.257 93.088,67.516 ZM90.315,7.884 C90.315,7.464 90.329,7.035 90.260,6.623 C89.876,4.331 88.062,3.314 85.887,4.105 C78.337,6.851 70.641,8.962 62.548,9.245 C57.177,9.432 51.977,8.864 47.361,5.738 C47.123,5.577 46.588,5.674 46.279,5.826 C44.978,6.466 43.764,7.316 42.420,7.830 C36.792,9.980 30.989,9.709 25.174,8.839 C19.089,7.929 13.242,6.149 7.521,3.921 C7.131,3.769 6.619,3.752 6.210,3.855 C4.518,4.282 3.687,5.495 3.686,7.476 C3.680,16.521 3.683,25.566 3.684,34.612 C3.684,41.664 3.614,48.718 3.715,55.769 C3.762,59.092 3.940,62.437 4.398,65.726 C5.898,76.511 10.577,85.820 17.996,93.759 C25.733,102.039 35.128,107.809 45.726,111.678 C46.535,111.974 47.636,111.916 48.470,111.635 C53.974,109.783 59.141,107.208 64.006,104.044 C72.240,98.689 79.061,91.971 83.828,83.316 C88.402,75.014 90.316,66.055 90.316,56.638 C90.317,40.387 90.317,24.136 90.315,7.884 ZM67.314,49.366 C60.635,56.022 53.946,62.667 47.248,69.303 C46.324,70.219 45.352,70.207 44.422,69.293 C41.525,66.446 38.636,63.589 35.763,60.717 C34.749,59.702 34.754,58.841 35.740,57.832 C36.892,56.654 38.059,55.489 39.245,54.346 C40.246,53.381 41.165,53.376 42.156,54.350 C43.356,55.530 44.511,56.755 45.901,58.181 C49.170,54.849 52.273,51.668 55.397,48.508 C57.229,46.655 59.083,44.822 60.948,43.002 C61.917,42.055 62.781,42.058 63.754,42.995 C64.941,44.138 66.111,45.300 67.266,46.475 C68.267,47.493 68.301,48.382 67.314,49.366 Z"/>
</symbol>
</svg>